<?xml version="1.0" standalone="no"?>
<!DOCTYPE svg PUBLIC "-//W3C//DTD SVG 20010904//EN"
 "http://www.w3.org/TR/2001/REC-SVG-20010904/DTD/svg10.dtd">
<svg version="1.0" xmlns="http://www.w3.org/2000/svg"
 width="1000.000000pt" height="411.000000pt" viewBox="0 0 1000.000000 411.000000"
 preserveAspectRatio="xMidYMid meet">

<g transform="translate(0.000000,411.000000) scale(0.100000,-0.100000)"
fill="#000000" stroke="none">
<path d="M1160 2880 c-171 -30 -350 -165 -434 -329 -15 -29 -16 -33 -3 -28 9
3 33 11 55 16 29 8 50 25 83 67 115 144 290 234 459 234 68 0 175 -26 249 -60
55 -25 62 -26 41 -8 -39 33 -165 88 -238 104 -72 15 -141 16 -212 4z"/>
<path d="M1181 2784 c-79 -21 -168 -72 -226 -129 -28 -27 -40 -40 -26 -29 177
148 449 172 633 55 25 -16 71 -52 102 -80 41 -37 64 -51 86 -51 37 0 37 7 2
56 -65 89 -155 149 -269 178 -76 20 -229 20 -302 0z"/>
<path d="M1430 2661 c-103 -32 -173 -115 -216 -256 -10 -33 -21 -64 -24 -68
-4 -4 -53 44 -109 107 -113 128 -93 121 -203 72 -32 -14 -58 -28 -58 -30 0 -3
62 -52 137 -111 l137 -106 73 -232 c40 -128 73 -234 73 -236 0 -2 -21 -1 -48
2 -64 7 -152 41 -212 82 -69 46 -63 28 8 -25 103 -77 205 -110 342 -110 135 0
230 31 336 110 28 21 69 43 92 49 23 7 50 23 61 37 41 52 39 147 -3 189 l-22
22 23 27 c40 47 24 140 -32 184 -26 21 -39 22 -191 22 l-164 0 -23 -37 c-13
-21 -30 -49 -37 -62 l-12 -24 169 6 c186 7 208 2 201 -44 l-3 -24 -187 -3
-188 -2 0 -150 0 -150 121 0 c101 0 120 -2 110 -14 -19 -23 -147 -77 -200 -83
-47 -5 -50 -4 -55 18 -30 128 -87 421 -88 447 0 51 42 159 80 203 36 42 98 79
132 79 11 0 20 7 20 15 0 19 -31 19 -77 0 -20 -8 -38 -13 -41 -10 -9 9 32 47
80 75 58 32 56 48 -2 31z m299 -583 c5 -13 5 -31 -1 -40 -8 -16 -25 -18 -133
-18 l-125 0 0 40 0 40 125 0 c121 0 126 -1 134 -22z"/>
<path d="M2718 2640 c-87 -27 -132 -90 -133 -186 0 -50 5 -68 28 -103 66 -100
211 -106 290 -12 34 40 41 67 35 136 -5 62 -42 126 -85 149 -37 18 -102 27
-135 16z m74 -106 c24 -41 40 -128 29 -158 -14 -34 -40 -40 -67 -15 -44 41
-70 169 -42 197 21 21 61 10 80 -24z"/>
<path d="M3935 2641 c-111 -27 -170 -164 -116 -269 23 -46 46 -67 94 -87 82
-34 177 -2 212 73 11 23 26 42 32 42 19 0 16 47 -3 54 -25 10 -124 7 -145 -4
-27 -15 -24 -39 6 -50 28 -11 32 -31 10 -50 -22 -18 -60 1 -85 42 -22 37 -27
125 -9 159 16 31 55 42 89 24 16 -8 34 -24 39 -34 26 -48 71 -30 71 29 0 43
-23 69 -60 67 -14 0 -43 2 -65 5 -22 4 -54 3 -70 -1z"/>
<path d="M4824 2635 c-15 -10 -23 -29 -27 -62 -7 -61 -84 -241 -108 -254 -49
-26 7 -58 76 -45 41 8 54 25 32 41 -10 7 -17 20 -17 29 0 13 11 16 59 16 66 0
82 -11 55 -41 -12 -13 -14 -23 -7 -30 15 -15 112 -23 153 -12 39 10 52 38 22
47 -11 4 -28 30 -42 64 -70 174 -126 262 -164 262 -6 0 -21 -7 -32 -15z m41
-155 c24 -47 20 -60 -21 -60 -36 0 -36 1 -30 32 5 28 22 58 32 58 2 0 10 -13
19 -30z"/>
<path d="M5645 2641 c-111 -28 -170 -164 -116 -269 23 -46 46 -67 94 -87 80
-33 175 -2 211 70 11 22 27 45 36 52 12 9 13 16 4 30 -8 13 -26 19 -70 21 -32
2 -68 1 -81 -3 -32 -8 -30 -43 2 -55 28 -11 32 -31 10 -50 -12 -10 -21 -10
-40 -2 -74 34 -93 186 -29 229 23 15 28 15 60 0 19 -9 34 -21 34 -27 0 -5 11
-17 25 -26 32 -21 55 -5 55 40 0 46 -22 71 -62 72 -18 0 -49 3 -68 7 -19 3
-49 2 -65 -2z"/>
<path d="M6372 2634 c-16 -11 -22 -25 -22 -50 0 -53 -77 -241 -106 -261 -13
-8 -24 -21 -24 -28 0 -24 85 -34 121 -15 23 13 25 40 3 40 -9 0 -14 7 -12 18
5 25 128 31 128 6 0 -9 -7 -22 -15 -28 -24 -18 -2 -36 52 -43 100 -11 159 17
115 55 -11 9 -46 74 -77 145 -38 84 -68 136 -87 152 -34 29 -46 31 -76 9z m47
-163 c11 -21 17 -41 14 -45 -10 -10 -61 -7 -68 4 -6 9 20 80 29 80 3 0 14 -17
25 -39z"/>
<path d="M2213 2629 c-14 -14 -6 -39 13 -39 8 0 34 -26 59 -57 43 -56 45 -61
45 -125 0 -57 -3 -69 -20 -78 -11 -6 -20 -17 -20 -25 0 -36 183 -46 197 -10 2
8 -5 26 -16 41 -26 34 -28 106 -3 151 24 44 77 100 102 108 13 4 20 13 18 23
-3 14 -16 17 -68 17 l-65 0 2 -29 c3 -34 -12 -66 -31 -66 -18 0 -40 50 -27 63
7 7 7 15 0 24 -14 17 -170 18 -186 2z"/>
<path d="M2983 2633 c-17 -6 -16 -31 2 -49 11 -12 15 -40 15 -114 0 -55 5
-111 12 -125 29 -64 148 -93 230 -57 70 30 81 55 86 185 3 85 8 115 19 124 32
25 7 43 -57 43 -68 0 -90 -19 -51 -46 19 -14 21 -24 21 -113 0 -110 -13 -134
-71 -134 -53 0 -73 31 -78 124 -3 70 0 85 18 110 25 34 26 45 5 53 -18 7 -133
7 -151 -1z"/>
<path d="M3383 2624 c-3 -9 4 -26 18 -40 22 -24 24 -34 24 -129 0 -86 -3 -106
-19 -124 -10 -11 -16 -27 -13 -35 12 -31 122 -31 134 0 3 7 -5 25 -16 40 -28
35 -27 114 1 114 5 0 52 -42 104 -92 91 -88 97 -92 110 -73 10 14 14 53 14
152 0 122 2 134 21 152 36 33 19 51 -51 51 -70 0 -87 -18 -51 -51 23 -21 29
-83 10 -95 -6 -4 -44 27 -88 70 l-76 76 -58 0 c-43 0 -59 -4 -64 -16z"/>
<path d="M4323 2624 c-4 -11 1 -22 13 -31 17 -13 19 -25 16 -131 -2 -85 -7
-121 -17 -132 -8 -9 -15 -24 -15 -33 0 -15 16 -17 136 -17 l136 0 34 34 c47
47 47 95 2 137 -32 29 -32 29 -15 58 22 38 22 73 -2 102 -18 23 -27 24 -150
27 -117 3 -132 2 -138 -14z m185 -46 c25 -25 11 -88 -19 -88 -16 0 -19 8 -19
50 0 51 12 64 38 38z m6 -154 c31 -30 17 -94 -20 -94 -22 0 -24 4 -24 55 0 59
13 70 44 39z"/>
<path d="M5093 2624 c-3 -9 4 -26 18 -40 22 -24 24 -34 24 -129 0 -86 -3 -106
-19 -124 -10 -11 -16 -27 -13 -35 12 -31 122 -31 134 1 3 8 -4 23 -16 34 -22
21 -29 81 -11 109 10 16 15 12 148 -115 60 -57 64 -59 78 -41 10 15 14 53 14
153 0 122 2 134 21 152 36 33 19 51 -51 51 -70 0 -87 -18 -51 -51 22 -21 30
-83 11 -94 -9 -5 -58 36 -146 123 -18 17 -34 22 -79 22 -41 0 -57 -4 -62 -16z"/>
<path d="M5914 2625 c-19 -14 -19 -15 5 -34 23 -18 25 -27 29 -132 4 -106 3
-115 -17 -133 -42 -38 -28 -46 77 -46 53 0 113 -3 133 -6 33 -6 37 -4 53 30
20 42 18 90 -4 94 -9 1 -21 -10 -28 -28 -15 -32 -47 -46 -81 -35 -20 6 -21 14
-21 122 0 93 3 120 16 134 9 10 14 25 11 34 -9 21 -145 21 -173 0z"/>
<path d="M757 2437 c-8 -22 8 -39 34 -35 16 2 25 11 27 26 3 18 -1 22 -26 22
-17 0 -32 -6 -35 -13z"/>
<path d="M833 2379 c-18 -18 -3 -39 27 -39 32 0 43 11 34 34 -7 18 -45 21 -61
5z"/>
<path d="M1298 2353 c-43 -65 -50 -83 -36 -83 7 0 30 27 50 60 41 66 28 86
-14 23z"/>
<path d="M1338 2330 c-26 -42 -33 -60 -23 -60 13 0 43 39 74 98 9 17 9 22 -1
22 -7 0 -30 -27 -50 -60z"/>
<path d="M914 2316 c-18 -14 -18 -16 -2 -32 14 -15 22 -16 43 -6 22 10 24 15
15 32 -13 24 -29 25 -56 6z"/>
<path d="M985 2250 c-9 -15 13 -40 35 -40 22 0 44 25 35 40 -3 5 -19 10 -35
10 -16 0 -32 -5 -35 -10z"/>
<path d="M2240 2131 c-30 -8 -37 -35 -15 -58 24 -23 17 -213 -8 -241 -23 -25
-5 -42 44 -42 44 0 67 21 44 40 -16 13 -22 110 -7 110 5 0 16 -24 25 -53 9
-29 23 -62 31 -72 14 -19 16 -17 36 30 45 106 44 105 48 61 2 -21 -2 -52 -9
-68 -17 -40 -3 -50 67 -46 48 2 59 6 62 22 2 10 -1 22 -7 25 -5 4 -13 43 -17
88 -5 63 -3 93 10 133 19 58 17 66 -24 75 -44 10 -69 -10 -102 -83 l-31 -67
-31 68 c-40 87 -53 96 -116 78z"/>
<path d="M5473 2129 c-42 -12 -49 -26 -27 -50 14 -15 17 -38 17 -114 0 -59 -4
-104 -13 -119 -22 -42 -8 -56 59 -56 41 0 65 5 75 16 20 19 20 19 0 38 -24 25
-21 223 4 242 15 11 15 14 2 28 -20 19 -77 27 -117 15z"/>
<path d="M7804 2126 c-38 -17 -79 -68 -92 -116 -28 -106 43 -220 138 -220 48
0 106 24 120 49 24 46 3 86 -30 56 -11 -10 -31 -15 -51 -13 -59 5 -100 100
-69 159 21 39 88 11 106 -43 13 -43 64 -9 64 44 0 45 -23 70 -75 84 -63 16
-73 16 -111 0z"/>
<path d="M8513 2132 c-12 -2 -27 -10 -34 -18 -10 -12 -8 -19 10 -37 18 -21 21
-35 21 -122 0 -77 -4 -102 -16 -116 -9 -10 -14 -25 -11 -34 5 -12 27 -15 115
-15 107 0 109 0 120 25 16 35 15 80 -3 95 -12 10 -17 5 -29 -24 -12 -28 -21
-36 -40 -36 -14 0 -28 5 -32 12 -4 6 -7 57 -5 112 1 75 6 102 17 110 20 15 8
46 -20 47 -11 1 -32 2 -46 3 -14 1 -35 0 -47 -2z"/>
<path d="M3389 2111 c-19 -16 -24 -30 -25 -73 -1 -29 -5 -63 -9 -74 -5 -16 -2
-22 14 -27 25 -6 29 -53 6 -83 -19 -25 -19 -50 1 -58 31 -12 112 -6 128 9 17
17 12 40 -10 49 -9 3 -14 20 -14 45 0 29 4 40 19 44 26 6 23 51 -4 55 -25 5
-65 41 -65 59 0 19 10 16 37 -9 27 -26 56 -16 61 20 8 54 -89 84 -139 43z"/>
<path d="M4689 2111 c-20 -16 -22 -23 -13 -38 6 -10 19 -20 28 -21 24 -5 73
17 80 35 16 41 -53 58 -95 24z"/>
<path d="M6041 2116 c-40 -14 -51 -35 -27 -48 31 -18 19 -36 -21 -31 -98 13
-149 -130 -78 -216 31 -36 56 -43 92 -24 18 9 29 11 31 4 5 -14 43 -14 76 -1
25 9 38 50 16 50 -6 0 -10 53 -10 140 0 139 0 140 -22 139 -13 0 -38 -6 -57
-13z m-13 -180 c4 -51 -5 -86 -22 -86 -17 0 -26 22 -26 65 0 46 9 67 29 63 11
-2 17 -16 19 -42z"/>
<path d="M7062 2114 c-32 -22 -26 -58 11 -62 39 -5 79 23 75 51 -4 28 -53 35
-86 11z"/>
<path d="M9083 2118 c-37 -12 -51 -38 -28 -50 29 -17 18 -37 -19 -31 -46 7
-74 -11 -98 -64 -24 -54 -17 -110 18 -152 30 -36 55 -43 91 -24 18 9 29 11 31
4 5 -14 43 -14 76 -1 26 10 36 43 16 55 -6 4 -10 62 -10 141 0 133 0 134 -22
133 -13 -1 -37 -6 -55 -11z m-15 -198 c4 -61 -11 -86 -34 -56 -17 23 -18 69
-3 97 17 34 34 16 37 -41z"/>
<path d="M4018 2062 c-50 -40 -60 -66 -28 -75 18 -5 20 -14 20 -85 0 -91 13
-112 71 -112 45 0 79 24 79 56 0 21 -3 24 -21 19 -28 -9 -39 9 -39 68 0 46 5
52 37 48 6 -1 14 3 18 9 5 8 11 7 21 -1 9 -7 14 -32 14 -69 0 -109 33 -148
104 -121 20 7 32 8 34 1 5 -14 55 -13 87 2 24 11 36 48 15 48 -5 0 -11 42 -12
93 l-3 92 -43 -2 c-24 -1 -50 -7 -58 -14 -13 -10 -12 -15 1 -35 25 -39 18
-134 -10 -134 -18 0 -25 33 -25 119 l0 74 -46 -7 c-26 -3 -53 -11 -60 -17 -11
-9 -14 -8 -14 5 0 11 -9 16 -30 16 -27 0 -30 3 -30 30 0 41 -23 38 -82 -8z"/>
<path d="M6663 2059 c-57 -43 -64 -58 -33 -66 18 -5 20 -14 20 -74 0 -81 14
-117 49 -126 37 -10 63 -4 89 20 29 27 25 52 -8 52 -23 0 -25 4 -28 57 -3 55
-2 57 25 60 22 2 28 8 28 28 0 20 -6 26 -27 28 -24 3 -28 8 -28 33 0 41 -23
38 -87 -12z"/>
<path d="M8772 2060 c-54 -43 -66 -70 -32 -70 18 0 20 -7 20 -78 0 -98 14
-122 71 -122 29 0 47 7 64 24 31 31 24 59 -11 50 -23 -6 -24 -5 -24 55 0 58 4
66 32 62 11 -1 30 38 23 49 -3 6 -17 10 -30 10 -18 0 -24 6 -27 27 -5 41 -28
39 -86 -7z"/>
<path d="M5289 2040 c-8 -5 -41 -8 -71 -7 -44 2 -63 -3 -85 -19 -31 -23 -42
-69 -23 -103 8 -16 7 -26 -5 -45 -13 -19 -14 -29 -5 -45 8 -15 8 -27 0 -42
-22 -39 35 -87 98 -82 6 0 23 1 37 2 32 1 82 48 91 83 4 21 0 33 -19 52 -22
22 -30 24 -81 19 -64 -6 -78 11 -18 21 52 8 88 38 95 78 4 18 9 48 13 66 6 33
0 38 -27 22z m-71 -80 c4 -38 -14 -63 -28 -40 -11 18 -13 64 -3 74 14 14 28
-1 31 -34z m20 -202 c-7 -19 -63 -22 -78 -4 -11 14 -7 16 35 16 33 0 45 -4 43
-12z"/>
<path d="M2640 2033 c-26 -10 -60 -46 -60 -64 0 -29 29 -31 54 -4 31 33 46 32
46 -5 0 -27 -3 -30 -30 -30 -63 0 -106 -85 -62 -122 28 -24 48 -27 76 -12 21
10 32 11 45 2 42 -26 112 32 75 62 -9 8 -14 32 -14 72 0 49 -4 63 -25 83 -23
24 -67 32 -105 18z m40 -168 c0 -14 -4 -25 -9 -25 -12 0 -23 29 -15 41 10 18
24 9 24 -16z"/>
<path d="M2843 2020 c-43 -19 -53 -36 -31 -58 14 -14 12 -111 -3 -129 -22 -25
9 -44 65 -41 48 3 51 5 49 28 -5 54 -4 132 1 137 3 3 12 3 21 0 17 -7 22 -101
6 -126 -18 -28 -1 -41 55 -41 60 0 77 16 56 51 -7 10 -12 48 -12 84 0 57 -3
69 -25 90 -30 30 -58 32 -84 4 l-19 -21 -7 21 c-8 26 -18 26 -72 1z"/>
<path d="M3112 2033 c-27 -5 -40 -29 -23 -46 6 -6 11 -34 11 -61 0 -80 16
-125 47 -132 15 -4 40 -2 57 5 20 7 32 8 34 1 5 -14 55 -13 87 2 24 11 36 48
15 48 -5 0 -11 42 -12 93 l-3 92 -42 -1 c-23 0 -49 -7 -58 -14 -14 -11 -14
-15 0 -36 24 -37 17 -134 -10 -134 -18 0 -25 33 -25 118 l0 72 -27 -1 c-16 -1
-38 -4 -51 -6z"/>
<path d="M3600 2033 c-26 -10 -60 -46 -60 -64 0 -29 29 -31 54 -4 31 33 46 32
46 -5 0 -27 -3 -30 -30 -30 -63 0 -106 -85 -62 -122 28 -24 48 -27 76 -12 21
10 32 11 45 2 28 -17 70 -2 77 29 5 17 3 28 -4 31 -8 2 -12 28 -12 68 0 56 -4
68 -25 89 -23 24 -67 32 -105 18z m40 -162 c0 -23 -16 -36 -25 -21 -9 14 1 40
15 40 5 0 10 -9 10 -19z"/>
<path d="M3831 2027 c-64 -33 -88 -136 -45 -194 23 -31 74 -52 109 -45 34 6
67 40 63 65 -3 19 -9 22 -40 19 -30 -3 -40 1 -53 22 -20 30 -16 70 7 74 12 2
21 -6 28 -23 19 -51 80 -16 66 38 -11 47 -84 71 -135 44z"/>
<path d="M4490 2026 c-23 -8 -36 -20 -38 -34 -2 -12 1 -22 7 -22 15 0 14 -105
-1 -129 -22 -36 -4 -51 60 -51 75 0 96 18 63 53 -13 15 -21 36 -21 60 0 41 12
54 30 32 17 -20 33 -19 53 3 21 23 22 66 1 86 -19 20 -38 20 -54 1 -7 -8 -16
-15 -21 -15 -5 0 -9 7 -9 15 0 18 -22 18 -70 1z"/>
<path d="M4713 2023 c-43 -15 -55 -37 -33 -59 15 -15 14 -107 -1 -132 -12 -19
-12 -24 1 -32 17 -11 90 -13 114 -4 18 7 21 35 6 50 -5 5 -10 50 -12 99 -3
101 -5 103 -75 78z"/>
<path d="M4875 2028 c-16 -6 -38 -18 -48 -26 -16 -14 -16 -17 -1 -33 13 -14
15 -30 10 -71 -13 -114 -17 -103 37 -106 57 -4 82 11 66 39 -5 11 -9 43 -7 72
2 39 7 53 20 55 23 4 34 -58 19 -109 -7 -22 -9 -44 -6 -49 3 -6 28 -10 55 -10
39 0 52 4 60 19 5 11 6 22 1 25 -4 3 -11 42 -13 87 -4 70 -8 85 -28 101 -29
23 -51 23 -83 -2 -25 -20 -25 -20 -30 0 -6 22 -9 23 -52 8z"/>
<path d="M5643 2020 c-41 -18 -55 -42 -33 -55 13 -8 13 -111 0 -135 -15 -27
10 -42 67 -38 l48 3 -4 83 c-3 77 -2 82 17 82 25 0 31 -39 19 -109 -4 -25 -3
-49 2 -54 4 -4 30 -7 57 -5 53 3 53 3 41 88 -2 14 -5 46 -5 73 -3 77 -64 115
-108 66 l-18 -20 -8 20 c-9 25 -20 25 -75 1z"/>
<path d="M6182 2033 c-27 -5 -40 -29 -23 -46 6 -6 11 -36 11 -68 0 -108 33
-147 104 -120 20 7 32 8 34 1 6 -17 68 -11 93 9 19 15 21 22 12 33 -7 8 -13
54 -15 104 l-3 89 -43 -1 c-24 0 -50 -7 -58 -15 -13 -13 -12 -19 2 -48 19 -38
12 -121 -11 -121 -20 0 -25 24 -25 111 l0 79 -27 -1 c-16 -1 -38 -4 -51 -6z"/>
<path d="M6462 2017 c-35 -38 -30 -92 13 -131 19 -18 35 -35 35 -39 0 -15 -26
-6 -38 13 -7 11 -19 20 -28 20 -13 0 -15 -7 -11 -37 8 -48 14 -52 75 -54 43
-2 57 2 77 21 38 36 33 75 -16 122 -42 41 -51 74 -9 38 13 -11 28 -19 34 -17
17 6 19 36 3 60 -22 34 -105 36 -135 4z"/>
<path d="M6854 2026 c-37 -16 -49 -40 -28 -56 19 -17 18 -99 -2 -128 -26 -37
-3 -53 70 -50 55 3 61 5 64 26 2 13 -3 25 -12 28 -12 4 -16 20 -16 55 l0 49
24 -15 c49 -33 96 28 62 80 -20 30 -39 32 -64 5 l-19 -21 -6 21 c-6 23 -29 25
-73 6z"/>
<path d="M7085 2025 c-22 -8 -41 -15 -42 -15 -8 0 -1 -40 7 -45 14 -9 13 -101
-2 -124 -21 -35 -4 -51 55 -51 67 0 87 17 63 52 -12 16 -16 46 -16 110 0 97 1
96 -65 73z"/>
<path d="M7224 2006 c-19 -19 -34 -42 -35 -52 0 -11 -2 -28 -4 -39 -5 -28 29
-101 53 -114 50 -27 129 -4 145 41 7 20 -18 45 -28 28 -11 -18 -63 -12 -75 9
-9 19 -6 20 47 23 l58 3 3 38 c3 30 -2 43 -27 67 -43 43 -91 42 -137 -4z m86
-36 c0 -21 -24 -28 -35 -10 -8 14 3 30 21 30 8 0 14 -9 14 -20z"/>
<path d="M7439 2021 c-18 -14 -24 -29 -24 -61 0 -37 6 -47 38 -75 20 -18 37
-35 37 -39 0 -14 -31 -4 -42 14 -14 21 -33 26 -43 10 -3 -5 1 -25 9 -45 15
-34 16 -35 74 -35 44 0 63 5 74 18 40 44 28 98 -29 133 -33 21 -40 33 -24 43
4 3 16 -3 26 -14 36 -40 62 -16 40 37 -12 28 -17 30 -63 31 -36 1 -57 -4 -73
-17z"/>
<path d="M8075 2030 c-40 -16 -68 -58 -73 -108 -7 -82 32 -134 103 -134 66 0
123 48 126 107 4 61 -2 78 -35 111 -35 35 -76 43 -121 24z m54 -81 c16 -46 14
-99 -3 -99 -16 0 -21 13 -31 72 -11 61 15 81 34 27z"/>
<path d="M710 2022 c0 -14 61 -106 107 -159 59 -70 177 -148 266 -175 92 -28
235 -30 322 -4 70 21 177 75 220 111 l30 26 -42 -26 c-181 -108 -434 -107
-600 4 -55 37 -149 128 -183 177 -8 11 -37 28 -64 37 -57 20 -56 19 -56 9z"/>
<path d="M8289 1903 c-27 -7 -41 -50 -27 -81 17 -35 62 -42 78 -12 24 45 -8
103 -51 93z"/>
<path d="M9222 1894 c-25 -17 -30 -72 -10 -92 36 -36 98 11 79 61 -14 37 -43
50 -69 31z"/>
<path d="M3037 1572 c-10 -10 -17 -28 -17 -40 0 -12 -4 -22 -10 -22 -5 0 -10
-7 -10 -15 0 -8 5 -15 10 -15 6 0 10 -37 10 -90 0 -73 3 -90 15 -90 12 0 15
17 15 90 0 89 0 90 25 90 18 0 23 4 19 15 -4 8 -15 15 -25 15 -12 0 -19 7 -19
19 0 21 22 33 45 25 10 -4 15 0 15 15 0 16 -6 21 -28 21 -16 0 -36 -8 -45 -18z"/>
<path d="M4620 1547 c0 -43 0 -43 -34 -39 -50 6 -76 -32 -76 -110 0 -50 4 -63
25 -84 18 -18 31 -23 43 -18 9 4 29 7 45 6 l27 -1 0 144 c0 122 -2 145 -15
145 -11 0 -15 -11 -15 -43z m-2 -134 c3 -60 2 -64 -24 -75 -23 -11 -28 -10
-40 7 -19 26 -18 94 3 117 9 10 26 18 37 16 18 -3 21 -11 24 -65z"/>
<path d="M6242 1577 c-6 -6 -13 -24 -17 -40 -4 -15 -11 -27 -16 -27 -5 0 -9
-7 -9 -15 0 -8 5 -15 10 -15 6 0 10 -37 10 -90 0 -73 3 -90 15 -90 12 0 15 17
15 90 0 89 0 90 25 90 16 0 25 6 25 15 0 9 -9 15 -25 15 -28 0 -31 8 -11 35 8
11 19 16 30 12 11 -5 16 -1 16 13 0 15 -7 20 -29 20 -16 0 -33 -6 -39 -13z"/>
<path d="M7560 1445 c0 -143 0 -145 23 -145 12 -1 34 -1 50 -1 37 -1 55 15 68
64 12 46 4 104 -18 130 -18 20 -63 23 -81 5 -9 -9 -12 0 -12 40 0 40 -4 52
-15 52 -13 0 -15 -23 -15 -145z m98 23 c7 -7 12 -35 12 -64 0 -57 -15 -78 -52
-72 -21 3 -23 9 -26 63 -3 47 0 62 14 72 22 16 37 16 52 1z"/>
<path d="M2267 1573 c-2 -5 -5 -68 -5 -140 -2 -127 -1 -133 18 -133 19 0 20 6
19 95 -2 52 0 97 3 101 3 3 14 -19 23 -48 20 -61 41 -90 49 -67 3 8 17 43 30
79 l25 65 1 -112 c0 -95 3 -113 15 -113 13 0 15 20 13 138 -3 126 -4 137 -22
137 -14 0 -25 -18 -45 -74 l-27 -73 -28 76 c-21 57 -33 76 -46 76 -11 0 -21
-3 -23 -7z"/>
<path d="M4790 1440 l0 -140 76 0 c66 0 75 2 72 18 -2 12 -14 17 -43 18 -22 1
-48 2 -57 3 -14 1 -18 10 -18 45 l0 45 52 3 c41 2 54 7 56 21 3 14 -5 17 -52
17 l-56 0 0 35 0 35 60 0 c45 0 60 4 60 14 0 20 -23 26 -91 26 l-59 0 0 -140z"/>
<path d="M6420 1439 c0 -117 2 -139 15 -139 12 0 15 13 15 55 0 74 23 74 68 0
22 -36 40 -55 53 -55 26 0 24 8 -16 64 l-34 49 19 25 c26 32 26 93 1 116 -11
10 -40 19 -70 21 l-51 3 0 -139z m98 89 c29 -29 -1 -88 -45 -88 -21 0 -23 4
-23 50 0 48 1 50 28 50 15 0 33 -5 40 -12z"/>
<path d="M7128 1551 c-30 -27 -33 -34 -36 -102 -4 -89 17 -133 70 -147 44 -12
92 6 96 37 4 23 3 23 -26 6 -65 -39 -120 19 -109 114 9 79 67 109 120 63 16
-14 17 -13 17 11 0 54 -80 64 -132 18z"/>
<path d="M3420 1544 c0 -29 -25 -60 -35 -44 -11 18 -74 11 -94 -9 -39 -39 -36
-148 3 -180 21 -17 87 -10 100 11 13 21 0 36 -16 20 -16 -16 -53 -15 -67 2
-15 18 -17 87 -2 115 13 23 30 25 75 6 14 -6 17 -5 12 3 -4 7 -1 12 8 12 13 0
16 -13 16 -71 0 -86 11 -109 50 -109 36 0 42 27 8 32 -21 3 -23 9 -26 76 -3
71 -3 72 23 72 16 0 25 6 25 15 0 9 -9 15 -25 15 -21 0 -25 5 -25 30 0 20 -5
30 -15 30 -9 0 -15 -10 -15 -26z"/>
<path d="M5577 1564 c-4 -4 -7 -18 -7 -31 0 -17 -6 -23 -22 -23 -12 0 -30 -7
-40 -17 -17 -15 -18 -15 -18 0 0 10 -7 17 -15 17 -12 0 -15 -18 -15 -105 0
-87 3 -105 15 -105 12 0 15 15 15 76 l0 75 35 15 c19 7 37 14 40 14 3 0 5 -29
5 -64 0 -93 11 -116 55 -116 24 0 35 5 35 15 0 9 -9 15 -25 15 -24 0 -25 2
-25 75 0 73 1 75 25 75 16 0 25 6 25 15 0 9 -9 15 -25 15 -14 0 -26 6 -26 13
-1 6 -2 18 -3 26 -1 16 -19 25 -29 15z"/>
<path d="M2507 1503 c-4 -3 -7 -13 -7 -20 0 -10 9 -12 35 -7 33 6 65 -7 65
-25 0 -4 -20 -12 -45 -19 -50 -13 -72 -43 -61 -84 10 -39 22 -50 52 -49 16 0
41 1 57 1 l27 1 0 82 c0 105 -13 127 -74 127 -23 0 -46 -3 -49 -7z m93 -123
c0 -23 -6 -33 -26 -42 -22 -10 -28 -10 -40 6 -9 13 -10 24 -4 37 9 15 19 20
63 28 4 0 7 -13 7 -29z"/>
<path d="M2670 1405 c0 -87 3 -105 15 -105 12 0 15 16 15 80 0 70 2 81 21 90
37 20 49 -3 49 -91 0 -64 3 -79 15 -79 12 0 15 16 15 86 0 47 -5 94 -10 105
-12 22 -59 26 -78 7 -9 -9 -12 -9 -12 0 0 7 -7 12 -15 12 -12 0 -15 -18 -15
-105z"/>
<path d="M2840 1424 c0 -116 5 -124 81 -123 l60 1 -3 102 c-2 82 -6 101 -18
101 -12 0 -15 -16 -17 -74 -1 -82 -19 -115 -51 -95 -13 9 -18 28 -20 93 -2 63
-6 81 -17 81 -12 0 -15 -17 -15 -86z"/>
<path d="M3117 1503 c-20 -19 -5 -32 35 -30 33 2 43 -2 46 -15 2 -12 -5 -19
-25 -24 -15 -3 -38 -13 -50 -20 -49 -31 -13 -135 40 -118 12 4 34 7 49 6 l27
-2 -2 88 c-2 106 -12 122 -72 122 -23 0 -45 -3 -48 -7z m85 -145 c-5 -20 -44
-34 -61 -23 -15 9 -14 40 2 53 35 29 70 11 59 -30z"/>
<path d="M3522 1415 c3 -96 11 -116 44 -116 10 1 36 1 57 1 l37 1 0 104 c0 85
-3 105 -14 105 -20 0 -27 -29 -25 -95 3 -65 -18 -98 -49 -79 -13 9 -18 28 -20
93 -2 65 -6 81 -18 81 -14 0 -15 -14 -12 -95z"/>
<path d="M3697 1503 c-4 -3 -7 -51 -7 -105 0 -91 1 -98 20 -98 18 0 20 7 20
73 0 75 9 97 42 97 11 0 18 7 18 20 0 22 -12 25 -41 10 -13 -7 -19 -7 -19 0 0
11 -23 14 -33 3z"/>
<path d="M3826 1491 c-61 -67 -29 -191 50 -191 46 0 64 9 64 31 0 16 -3 18
-19 9 -43 -22 -91 -1 -91 41 0 17 7 19 61 19 l61 0 -7 38 c-4 20 -14 45 -22
55 -21 23 -75 22 -97 -2z m78 -27 c11 -29 6 -34 -34 -34 -26 0 -40 5 -40 13 0
34 62 52 74 21z"/>
<path d="M3970 1405 c0 -87 3 -105 15 -105 12 0 15 15 15 76 0 75 0 76 30 87
19 7 30 18 30 30 0 13 -5 17 -15 13 -8 -3 -22 -9 -30 -12 -8 -3 -15 -1 -15 5
0 6 -7 11 -15 11 -12 0 -15 -18 -15 -105z"/>
<path d="M4187 1503 c-4 -3 -7 -12 -7 -20 0 -10 10 -12 39 -7 33 5 41 3 50
-14 9 -18 7 -21 -27 -27 -49 -9 -72 -31 -72 -70 0 -38 19 -66 45 -66 11 1 37
1 58 1 l37 1 0 82 c0 105 -13 127 -74 127 -23 0 -46 -3 -49 -7z m71 -164 c-23
-15 -46 -10 -53 11 -8 25 9 48 38 52 18 2 23 -3 25 -26 2 -16 -2 -33 -10 -37z"/>
<path d="M4346 1502 c-3 -5 -5 -52 -5 -105 0 -91 1 -97 20 -97 19 0 20 6 19
68 -2 92 -2 90 21 102 37 20 49 -3 49 -91 0 -64 3 -79 15 -79 12 0 15 16 15
86 0 47 -5 94 -10 105 -12 21 -50 25 -81 9 -13 -7 -19 -7 -19 0 0 12 -17 13
-24 2z"/>
<path d="M4950 1504 c0 -4 12 -28 26 -54 l26 -48 -26 -44 c-30 -52 -31 -58
-11 -58 9 0 23 16 32 35 9 19 20 35 23 35 3 0 14 -16 23 -35 11 -23 24 -35 37
-35 19 0 19 3 -9 52 l-30 53 29 52 c27 47 28 53 12 53 -10 0 -27 -15 -39 -36
l-20 -36 -22 36 c-19 31 -51 49 -51 30z"/>
<path d="M5120 1364 c0 -112 3 -145 13 -142 6 3 13 21 15 41 3 35 5 37 37 37
50 0 75 37 75 109 0 68 -19 101 -59 101 -15 0 -32 -5 -39 -12 -9 -9 -12 -9
-12 0 0 7 -7 12 -15 12 -13 0 -15 -23 -15 -146z m94 100 c23 -23 21 -96 -3
-118 -11 -10 -28 -16 -38 -14 -26 5 -32 117 -7 135 23 17 29 16 48 -3z"/>
<path d="M5301 1484 c-30 -38 -29 -124 2 -158 36 -40 63 -42 97 -7 26 25 30
37 30 84 0 70 -26 107 -75 107 -24 0 -39 -7 -54 -26z m89 -23 c5 -11 10 -36
10 -56 0 -20 -5 -45 -10 -56 -14 -26 -56 -25 -71 2 -14 27 -6 109 12 120 23
14 48 10 59 -10z"/>
<path d="M5691 1486 c-34 -36 -34 -125 -1 -161 36 -38 120 -34 120 6 0 16 -3
18 -19 9 -43 -22 -91 -1 -91 41 0 16 7 19 55 19 l55 0 0 33 c0 73 -71 105
-119 53z m83 -22 c11 -29 6 -34 -34 -34 -26 0 -40 5 -40 13 0 34 62 52 74 21z"/>
<path d="M5840 1405 c0 -87 3 -105 15 -105 12 0 15 15 15 76 0 75 0 76 30 87
18 7 30 19 30 29 0 22 -9 23 -38 2 -20 -14 -22 -14 -22 0 0 9 -7 16 -15 16
-12 0 -15 -18 -15 -105z"/>
<path d="M6061 1484 c-29 -36 -29 -121 -1 -156 30 -39 68 -42 102 -8 24 24 28
37 28 83 0 70 -26 107 -75 107 -24 0 -39 -7 -54 -26z m83 -20 c18 -18 21 -85
6 -115 -6 -11 -21 -19 -35 -19 -30 0 -45 26 -45 79 0 40 19 71 45 71 7 0 21
-7 29 -16z"/>
<path d="M6610 1491 c0 -17 6 -19 42 -18 33 2 43 -2 46 -15 2 -12 -6 -19 -33
-24 -45 -8 -79 -48 -70 -84 8 -33 44 -63 64 -54 9 4 28 7 44 6 l27 -1 0 89 c0
105 -9 120 -76 120 -37 0 -44 -3 -44 -19z m79 -147 c-7 -8 -22 -14 -33 -12
-16 2 -21 10 -21 33 0 25 5 31 30 35 26 5 30 2 33 -18 2 -13 -2 -30 -9 -38z"/>
<path d="M6774 1405 c25 -132 42 -140 71 -32 l19 72 17 -55 c10 -30 18 -63 18
-72 1 -10 9 -18 19 -18 14 0 21 17 36 93 10 50 21 98 24 106 3 9 -1 12 -14 9
-15 -2 -21 -18 -30 -66 -6 -34 -13 -65 -16 -67 -2 -2 -12 27 -22 65 -10 42
-23 70 -31 70 -8 0 -20 -29 -31 -72 l-18 -73 -16 70 c-10 47 -21 71 -31 73
-14 3 -14 -9 5 -103z"/>
<path d="M7290 1490 c0 -16 5 -19 30 -14 28 6 60 -8 60 -25 0 -4 -20 -12 -45
-19 -35 -9 -48 -19 -56 -39 -14 -36 -4 -69 26 -89 23 -15 27 -15 50 0 14 9 25
12 25 6 0 -5 7 -10 15 -10 12 0 15 16 15 88 0 105 -11 122 -78 122 -35 0 -42
-3 -42 -20z m79 -146 c-7 -8 -22 -14 -33 -12 -16 2 -21 10 -21 33 0 25 5 31
30 35 26 5 30 2 33 -18 2 -13 -2 -30 -9 -38z"/>
<path d="M7450 1405 c0 -87 3 -105 15 -105 12 0 15 15 15 76 0 75 0 76 30 87
18 7 30 19 30 29 0 23 -18 23 -42 1 -17 -15 -18 -15 -18 0 0 10 -7 17 -15 17
-12 0 -15 -18 -15 -105z"/>
<path d="M7740 1478 c-23 -37 -26 -101 -7 -138 26 -52 101 -59 126 -12 28 52
17 153 -19 172 -10 5 -33 10 -49 10 -25 0 -36 -7 -51 -32z m90 -17 c14 -27 13
-104 -2 -119 -34 -34 -71 -1 -71 63 0 24 5 51 13 59 17 22 47 20 60 -3z"/>
<path d="M7900 1403 c0 -96 1 -103 20 -103 18 0 20 6 19 76 -1 58 3 80 15 92
13 13 20 14 34 6 13 -9 18 -28 20 -93 2 -63 6 -81 17 -81 12 0 15 17 15 83 0
110 -11 127 -85 125 l-55 -2 0 -103z"/>
</g>
</svg>
